<svg width="154" height="36" viewBox="0 0 154 36" fill="none" xmlns="http://www.w3.org/2000/svg">
<path d="M69.7432 13.51H72.8603C72.3403 10.263 69.4701 8 65.7352 8C61.3157 8 58 11.1831 58 16.5167C58 21.7514 61.1667 25 65.8252 25C70.0072 25 73 22.3659 73 18.1V16.1122H66.1481V18.4542H70.0459C69.9963 20.8131 68.3881 22.3081 65.8547 22.3081C63.0264 22.3081 61.0891 20.2322 61.0891 16.4832C61.0891 12.7587 63.059 10.6904 65.7895 10.6904C67.8137 10.6904 69.1984 11.7565 69.7432 13.51Z" fill="#B4B7C9"/>
<path d="M75.1968 25H77.7884V12.2725H75.1968V25ZM76.5041 10.2571C77.3275 10.2571 78 9.52708 78 8.63324C78 7.7394 77.3261 7 76.5041 7C75.682 7 75 7.73004 75 8.63324C75 9.53643 75.6698 10.2571 76.5041 10.2571Z" fill="#B4B7C9"/>
<path d="M86.7845 12.0578H84.454V9H81.6751V12.0578H80V14.3867H81.6751V21.4829C81.6592 23.8838 83.2736 25.063 85.3625 24.9974C85.9192 24.9869 86.4712 24.8857 87 24.6971L86.5313 22.351C86.2652 22.4253 85.9917 22.4647 85.7169 22.4683C85.0182 22.4683 84.4569 22.2024 84.4569 20.9887V14.3867H86.7845V12.0578Z" fill="#B4B7C9"/>
<path d="M89 25H99V22.4186H91.9129V8H89V25Z" fill="#B4B7C9"/>
<path d="M105.272 25C107.273 25 108.469 24.0743 109.016 23.0159H109.11V24.7455H112V16.32C112 12.9935 109.252 12 106.818 12C104.135 12 102.077 13.1803 101.412 15.4745L104.227 15.8679C104.526 15.007 105.372 14.2695 106.843 14.2695C108.237 14.2695 109.002 14.9746 109.002 16.212V16.2613C109.002 17.1129 108.096 17.1546 105.846 17.3922C103.371 17.6545 101 18.3843 101 21.22C101.003 23.6886 102.838 25 105.272 25ZM106.26 22.82C105.009 22.82 104.109 22.2537 104.109 21.1645C104.109 20.0243 105.114 19.5491 106.454 19.3609C107.243 19.2544 108.82 19.0523 109.211 18.7438V20.2264C109.216 21.632 108.07 22.82 106.26 22.82Z" fill="#B4B7C9"/>
<path d="M114 24.7779H116.946V22.7962H117.12C117.588 23.7215 118.577 25 120.761 25C123.757 25 126 22.6481 126 18.5026C126 14.3077 123.692 12.0253 120.753 12.0253C118.51 12.0253 117.575 13.3592 117.12 14.2692H116.995V8H114V24.7779ZM116.938 18.4872C116.938 16.0459 117.997 14.4635 119.926 14.4635C121.92 14.4635 122.947 16.143 122.947 18.4872C122.947 20.8313 121.903 22.5664 119.926 22.5664C118.013 22.5664 116.938 20.9285 116.938 18.4872Z" fill="#B4B7C9"/>
<path d="M51.58 14.56L48.7607 7.47148C48.7035 7.32517 48.6006 7.20108 48.4671 7.11757C48.3339 7.03257 48.177 6.99188 48.019 7.00134C47.8609 7.00899 47.7094 7.06649 47.5863 7.16554C47.4631 7.26459 47.3747 7.40007 47.3337 7.55245L45.4076 13.4357H37.5982L35.6641 7.55245C35.6228 7.40099 35.5342 7.26654 35.4113 7.1685C35.2874 7.07075 35.1362 7.01372 34.9785 7.00529C34.8208 6.99687 34.6643 7.03747 34.5307 7.12149C34.3977 7.20541 34.2949 7.32937 34.2372 7.4754L31.42 14.56C35.2 15.4 41.92 21.7 41.92 21.7C41.92 21.7 48.7607 14.98 51.58 14.56Z" fill="#B4B7C9"/>
<path d="M51.6626 14.6394L51.635 14.5601C50.2981 14.8636 49.0384 15.4901 47.946 16.3947L41.92 21.4326L45.7587 24.6401L49.9622 21.1628L49.9735 21.1544C50.8559 20.418 51.4979 19.3842 51.8026 18.2091C52.1073 17.0339 52.0582 15.781 51.6626 14.6394Z" fill="#B4B7C9" fill-opacity="0.67"/>
<path d="M37.72 24.7675L39.9827 26.649L41.3591 27.7924C41.5204 27.927 41.7174 27.9998 41.9199 27.9998C42.1225 27.9998 42.3195 27.927 42.4808 27.7924L43.8572 26.649L46.12 24.7675L41.9193 21.2798L37.72 24.7675Z" fill="#B4B7C9" fill-opacity="0.33"/>
<path d="M35.3906 16.3947C34.2075 15.4899 32.8429 14.8633 31.3946 14.5601L31.3647 14.6394C30.9367 15.7807 30.8839 17.0332 31.2143 18.2078C31.5447 19.3825 32.2403 20.4157 33.1963 21.1516L33.2059 21.1586L33.2331 21.1794L37.762 24.6401L41.92 21.4326L35.3906 16.3947Z" fill="#B4B7C9" fill-opacity="0.67"/>
</svg>
