<svg width="154" height="36" viewBox="0 0 154 36" fill="none" xmlns="http://www.w3.org/2000/svg">
<path d="M56 8V24.9916L58.4327 25V16.9088H64.2807V14.768H58.4234V10.1324H66.0491V8H56ZM70.4094 11.4556C70.8312 11.4556 71.2358 11.3047 71.5341 11.036C71.8324 10.7673 72 10.4028 72 10.0228C72 9.6428 71.8324 9.27835 71.5341 9.00965C71.2358 8.74094 70.8312 8.58999 70.4094 8.58999C69.9875 8.58999 69.5829 8.74094 69.2846 9.00965C68.9863 9.27835 68.8187 9.6428 68.8187 10.0228C68.8187 10.4028 68.9863 10.7673 69.2846 11.036C69.5829 11.3047 69.9875 11.4556 70.4094 11.4556ZM69.1836 13.588V25H71.6164V13.588H69.1836Z" fill="#B4B7C9"/>
<path fill-rule="evenodd" clip-rule="evenodd" d="M80.7596 13C77.956 13 76 15.5246 76 18.5264C76 21.5281 77.956 24.0527 80.7596 24.0527C82.0473 24.0527 83.1068 23.5322 83.881 22.6646V24.2262C83.8864 24.6928 83.8048 25.1559 83.6411 25.5888C83.4773 26.0216 83.2345 26.4156 82.9269 26.748C82.6192 27.0804 82.2526 27.3445 81.8485 27.5252C81.4443 27.7059 81.0105 27.7995 80.5721 27.8006C79.8957 27.8006 79.2274 27.523 78.6976 27.1239L77.6381 29.0759C78.4574 29.6396 79.4044 29.9575 80.3792 29.996C81.354 30.0346 82.3206 29.7923 83.1768 29.2948C84.0331 28.7973 84.7473 28.063 85.2442 27.1694C85.7411 26.2758 86.0022 25.256 86 24.2176V13.347H83.881V14.3968C83.1068 13.5292 82.0473 13.0087 80.7596 13.0087V13ZM78.1108 18.5264C78.1108 16.6611 79.4474 15.1949 80.9959 15.1949C82.5444 15.1949 83.8728 16.6698 83.8728 18.5264C83.8728 20.3916 82.5363 21.8491 80.9959 21.8491C79.4474 21.8491 78.1108 20.3916 78.1108 18.5264Z" fill="#B4B7C9"/>
<path d="M94.5569 15.1799C93.9271 15.1912 93.3269 15.4542 92.8863 15.912C92.4456 16.3698 92.1999 16.9856 92.2022 17.6263V25H90V13.3364H92.2022V14.4046C92.5317 13.9605 92.9597 13.6018 93.4513 13.3578C93.9429 13.1138 94.4843 12.9914 95.0312 13.0005C96.5728 13.0005 97.7586 13.7757 98.4362 14.9645C98.8142 14.3686 99.3316 13.8772 99.9421 13.5345C100.553 13.1917 101.237 13.0083 101.934 13.0005C104.433 13.0005 106 15.0506 106 17.5918V25H103.815V17.6177C103.817 16.977 103.571 16.3612 103.131 15.9034C102.69 15.4456 102.09 15.1826 101.46 15.1712C100.83 15.1826 100.23 15.4456 99.7894 15.9034C99.3488 16.3612 99.103 16.977 99.1053 17.6177V24.9914H96.9031V17.6177C96.9055 16.9785 96.6609 16.3639 96.2221 15.9064C95.7832 15.4488 95.1853 15.1848 94.5569 15.1712V15.1799Z" fill="#B4B7C9"/>
<path fill-rule="evenodd" clip-rule="evenodd" d="M117.93 14.7522C117.458 14.1933 116.89 13.7497 116.262 13.4484C115.634 13.1472 114.958 12.9946 114.276 13.0001C111.19 13.0001 109 15.9596 109 19.5C109 23.0405 111.19 25.9999 114.276 25.9999C114.958 26.0039 115.633 25.8506 116.261 25.5494C116.889 25.2483 117.457 24.8055 117.93 24.2479V25.6459H120V13.3542H117.922V14.7522H117.93ZM111.07 19.5C111.07 17.1579 112.653 15.2969 114.5 15.2969C116.339 15.2969 117.93 17.1579 117.93 19.5C117.93 21.8422 116.347 23.6941 114.5 23.6941C112.661 23.6941 111.07 21.8422 111.07 19.5Z" fill="#B4B7C9"/>
<path d="M42 17.5C42 16.3065 42.4741 15.1619 43.318 14.318C44.1619 13.4741 45.3065 13 46.5 13C47.6935 13 48.8381 13.4741 49.682 14.318C50.5259 15.1619 51 16.3065 51 17.5C51 18.6935 50.5259 19.8381 49.682 20.682C48.8381 21.5259 47.6935 22 46.5 22C45.3065 22 44.1619 21.5259 43.318 20.682C42.4741 19.8381 42 18.6935 42 17.5Z" fill="#B4B7C9" fill-opacity="0.5"/>
<path d="M34 26.5C34 25.3065 34.4214 24.1619 35.1716 23.318C35.9217 22.4741 36.9391 22 38 22H42V26.5C42 27.6935 41.5786 28.8381 40.8284 29.682C40.0783 30.5259 39.0609 31 38 31C36.9391 31 35.9217 30.5259 35.1716 29.682C34.4214 28.8381 34 27.6935 34 26.5Z" fill="#B4B7C9" fill-opacity="0.25"/>
<path d="M42 4V13H46.5C47.6935 13 48.8381 12.5259 49.682 11.682C50.5259 10.8381 51 9.69347 51 8.5C51 7.30653 50.5259 6.16193 49.682 5.31802C48.8381 4.47411 47.6935 4 46.5 4H42Z" fill="#B4B7C9"/>
<path d="M34 8.5C34 9.69347 34.4214 10.8381 35.1716 11.682C35.9217 12.5259 36.9391 13 38 13H42V4H38C36.9391 4 35.9217 4.47411 35.1716 5.31802C34.4214 6.16193 34 7.30653 34 8.5Z" fill="#B4B7C9"/>
<path d="M34 17.5C34 18.6935 34.4214 19.8381 35.1716 20.682C35.9217 21.5259 36.9391 22 38 22H42V13H38C36.9391 13 35.9217 13.4741 35.1716 14.318C34.4214 15.1619 34 16.3065 34 17.5Z" fill="#B4B7C9" fill-opacity="0.75"/>
</svg>
