<svg width="154" height="36" viewBox="0 0 154 36" fill="none" xmlns="http://www.w3.org/2000/svg">
<path d="M67.5441 12.6453C69.0627 12.6453 70.2356 13.1482 71.0638 14.1544C71.8917 15.1606 72.3056 16.5839 72.3056 18.425V19.4741H65.0191C65.0944 20.4301 65.4019 21.1866 65.9413 21.7431C66.4808 22.2997 67.1591 22.5779 67.9768 22.5779C69.1242 22.5779 70.0588 22.0963 70.7803 21.133L72.1303 22.4708C71.6838 23.1631 71.0878 23.6998 70.3423 24.0816C69.5968 24.4634 68.7601 24.6543 67.8325 24.6543C66.2454 24.6543 64.9587 24.1352 63.9728 23.097C62.9868 22.0589 62.4937 20.6764 62.4937 18.9495V18.6283C62.4937 17.4723 62.7086 16.4396 63.1381 15.5296C63.5673 14.6199 64.1703 13.9118 64.9466 13.4052C65.7232 12.8986 66.5889 12.6453 67.5441 12.6453ZM62.9042 8.85642V11.0396H58.225V24.4403H55.6378V11.0396H51V8.85642H62.9042ZM67.5338 14.7323C66.8466 14.7323 66.2917 14.9822 65.8692 15.4815C65.4468 15.9811 65.1771 16.6768 65.0601 17.5688H69.8322V17.3761C69.7771 16.5057 69.5537 15.8472 69.162 15.4015C68.7704 14.9554 68.2277 14.7323 67.5338 14.7323ZM76.4143 24.4403H73.9098V8H76.4143V24.4403ZM83.4652 24.6543C81.878 24.6543 80.5913 24.1352 79.6054 23.097C78.6192 22.0589 78.1264 20.6764 78.1264 18.9495V18.6283C78.1264 17.4723 78.341 16.4396 78.7705 15.5296C79.1999 14.6199 79.8027 13.9118 80.5793 13.4052C81.3556 12.8986 82.2213 12.6453 83.1764 12.6453C84.695 12.6453 85.8682 13.1482 86.6961 14.1544C87.524 15.1606 87.938 16.5839 87.938 18.425V19.4741H80.6514C80.727 20.4301 81.0346 21.1866 81.5737 21.7431C82.1131 22.2997 82.7918 22.5779 83.6094 22.5779C84.7568 22.5779 85.6912 22.0963 86.4126 21.133L87.7629 22.4708C87.3162 23.1631 86.7202 23.6998 85.9746 24.0816C85.2291 24.4634 84.3927 24.6543 83.4652 24.6543ZM83.1661 14.7323C82.479 14.7323 81.9243 14.9822 81.5016 15.4815C81.0791 15.9811 80.8094 16.6768 80.6927 17.5688H85.4645V17.3761C85.4094 16.5057 85.1863 15.8472 84.7947 15.4015C84.403 14.9554 83.8601 14.7323 83.1661 14.7323ZM89.1496 18.5641C89.1496 16.766 89.5568 15.3299 90.3709 14.2561C91.1853 13.182 92.2656 12.6453 93.6124 12.6453C94.8836 12.6453 95.8833 13.1056 96.6115 14.026L96.7249 12.8593H98.982V24.0871C98.982 25.6069 98.527 26.8058 97.6164 27.6833C96.7062 28.561 95.4778 29 93.932 29C93.1143 29 92.3155 28.8231 91.5357 28.47C90.7558 28.1168 90.1631 27.6549 89.7576 27.0841L90.9429 25.5214C91.7124 26.4703 92.6608 26.945 93.7877 26.945C94.6191 26.945 95.2752 26.7112 95.756 26.2438C96.2371 25.7765 96.4775 25.0897 96.4775 24.1833V23.4021C95.756 24.2369 94.7942 24.6543 93.5919 24.6543C92.2861 24.6543 91.2196 24.1157 90.3917 23.0383C89.5635 21.9605 89.1496 20.4693 89.1496 18.5641ZM91.6438 18.7891C91.6438 19.9521 91.8722 20.8672 92.3292 21.5343C92.7863 22.2013 93.4201 22.535 94.2307 22.535C95.2409 22.535 95.9897 22.0857 96.4775 21.1866V16.0917C96.0035 15.2139 95.2615 14.7752 94.2515 14.7752C93.4268 14.7752 92.7863 15.1141 92.3292 15.7921C91.8722 16.4698 91.6438 17.469 91.6438 18.7891ZM107.099 15.2355C106.769 15.1783 106.429 15.1497 106.079 15.1497C104.931 15.1497 104.158 15.6064 103.76 16.5197V24.4403H101.255V12.8593H103.646L103.708 14.1544C104.313 13.1482 105.151 12.6453 106.223 12.6453C106.58 12.6453 106.876 12.6952 107.109 12.7951L107.099 15.2355ZM114.742 24.4403C114.632 24.2189 114.536 23.8588 114.453 23.3592C113.656 24.2226 112.681 24.6543 111.526 24.6543C110.406 24.6543 109.492 24.3224 108.785 23.659C108.077 22.9953 107.723 22.1749 107.723 21.1973C107.723 19.9627 108.165 19.0156 109.047 18.3555C109.93 17.6955 111.193 17.3655 112.835 17.3655H114.371V16.6056C114.371 16.0061 114.209 15.5263 113.886 15.1658C113.564 14.8057 113.072 14.6254 112.413 14.6254C111.842 14.6254 111.375 14.7734 111.011 15.0696C110.647 15.3655 110.465 15.7421 110.465 16.1988H107.96C107.96 15.5637 108.163 14.9698 108.568 14.4166C108.974 13.8637 109.525 13.4302 110.222 13.1163C110.92 12.8021 111.698 12.6453 112.557 12.6453C113.862 12.6453 114.903 12.986 115.68 13.6673C116.456 14.349 116.855 15.3068 116.875 16.5413V21.7645C116.875 22.8063 117.016 23.6374 117.298 24.2582V24.4403H114.742ZM111.99 22.5673C112.485 22.5673 112.95 22.4425 113.387 22.1925C113.823 21.9429 114.151 21.6074 114.371 21.1866V19.0031H113.021C112.093 19.0031 111.396 19.1705 110.928 19.5061C110.461 19.8416 110.228 20.3159 110.228 20.9297C110.228 21.429 110.388 21.8269 110.707 22.1231C111.026 22.419 111.454 22.5673 111.99 22.5673ZM121.56 12.8593L121.632 14.0689C122.416 13.1196 123.487 12.6453 124.848 12.6453C126.339 12.6453 127.359 13.2374 127.909 14.4221C128.72 13.2374 129.86 12.6453 131.331 12.6453C132.561 12.6453 133.476 12.9984 134.077 13.7048C134.679 14.4114 134.986 15.4529 135 16.8302V24.4403H132.496V16.9051C132.496 16.1702 132.341 15.6313 132.032 15.2888C131.722 14.9463 131.211 14.7752 130.496 14.7752C129.926 14.7752 129.46 14.9338 129.1 15.2514C128.739 15.5689 128.486 15.9848 128.342 16.4984L128.352 24.4403H125.848V16.8196C125.813 15.4566 125.144 14.7752 123.838 14.7752C122.835 14.7752 122.124 15.1996 121.704 16.049V24.4403H119.2V12.8593H121.56Z" fill="#B4B7C9" fill-opacity="0.5"/>
<path fill-rule="evenodd" clip-rule="evenodd" d="M22.9551 6.95402C25.4842 4.4232 28.9204 3 32.5 3C36.0796 3 39.5158 4.4232 42.0449 6.95402C44.5762 9.48485 46 12.921 46 16.5C46 20.079 44.5762 23.5151 42.0449 26.046C39.5158 28.5768 36.0796 30 32.5 30C28.9204 30 25.4842 28.5768 22.9551 26.046C20.4238 23.5151 19 20.079 19 16.5C19 12.921 20.4238 9.48485 22.9551 6.95402ZM33.0856 12.8167C31.7432 13.3561 29.0584 14.4726 25.0311 16.1659C24.3771 16.4169 24.0339 16.6626 24.0037 16.9026C23.9506 17.308 24.4766 17.4679 25.1913 17.6852C25.2893 17.715 25.3909 17.7459 25.4951 17.7786C26.2008 17.9999 27.1504 18.2588 27.6425 18.269C28.0914 18.2784 28.5899 18.1003 29.1403 17.7349C32.9042 15.2834 34.8445 14.0442 34.9675 14.0176C35.0539 13.9988 35.1726 13.9751 35.2525 14.0445C35.3345 14.1136 35.3258 14.2449 35.3172 14.2801C35.2663 14.4942 33.2078 16.3416 32.1367 17.303C31.7999 17.6052 31.5608 17.8198 31.5122 17.8686C31.4038 17.9773 31.2933 18.0802 31.1871 18.179C30.5321 18.7885 30.0407 19.2457 31.2144 19.9921C31.7835 20.354 32.2377 20.6526 32.6917 20.9511C33.1795 21.2719 33.667 21.5924 34.2963 21.9909C34.4582 22.0933 34.6127 22.1996 34.7632 22.3031C35.3353 22.6968 35.8492 23.0505 36.4848 22.9941C36.8539 22.9613 37.2359 22.6263 37.428 21.6271C37.8856 19.2657 38.7855 14.1495 38.9927 12.0411C39.0122 11.8565 38.9884 11.6201 38.9711 11.5163C38.9517 11.4126 38.9128 11.2647 38.7747 11.1553C38.6085 11.0255 38.3538 10.9982 38.2395 11.0001C37.7193 11.009 36.923 11.2765 33.0856 12.8167Z" fill="#B4B7C9"/>
</svg>
