<svg width="171" height="40" viewBox="0 0 171 40" fill="none" xmlns="http://www.w3.org/2000/svg">
<g clip-path="url(#clip0_492_16055)">
<path d="M67.76 14.9855C67.7437 14.8885 67.7271 14.7917 67.7086 14.6954C67.6494 14.3851 67.6494 14.3851 67.6494 14.3851C67.5663 14.0492 67.1916 13.7744 66.8169 13.7743L57.732 13.7735C57.3571 13.7734 56.956 14.0627 56.8405 14.4162L54.9103 20.3242C54.8533 20.4986 54.7783 20.7136 54.8611 20.8297C54.9462 20.9488 55.192 20.9669 55.3819 20.9669H59.0806C59.0806 20.9669 59.2534 20.9655 59.2764 21.0844C59.301 21.2107 59.1685 21.3467 59.1685 21.3467L52.6486 28.1404C52.4206 28.3781 52.0223 28.7927 51.7638 29.0617L50.0914 30.8014C50.0914 30.8014 50.0573 30.8395 50.0173 30.8759C49.9943 30.8971 49.9722 30.9155 49.9511 30.9318C49.7191 31.1105 49.6094 31.0105 49.7057 30.6837L50.5567 27.7924C50.6617 27.4358 50.8334 26.8519 50.9385 26.4953L51.4259 24.8393C51.5076 24.5616 51.6004 24.2466 51.6588 24.0481C51.6753 23.9917 51.714 23.8177 51.6556 23.7298C51.6003 23.6463 51.507 23.6305 51.4022 23.6305C51.2888 23.6305 51.1551 23.6305 51.0145 23.6305H47.4917C47.1168 23.6305 46.991 23.4423 47.2121 23.2124C47.4331 22.9825 47.8254 22.5742 48.0841 22.3052L50.8229 19.4562C51.0815 19.1872 51.4796 18.7726 51.7079 18.5348C51.9361 18.297 52.3343 17.8823 52.5925 17.613L53.055 17.1311C53.3135 16.8618 53.7362 16.4212 53.9945 16.1521L54.9437 15.1632C55.202 14.8939 55.6078 14.4711 55.8452 14.2235C56.0829 13.976 56.3395 13.7086 56.4156 13.6292C56.4916 13.5499 56.7652 13.2648 57.0237 12.9955L62.3041 7.4933C62.5626 7.22404 62.512 6.84553 62.1921 6.65206C62.1921 6.65206 61.4452 6.2007 60.7365 5.90728C58.8944 5.14454 56.8947 4.87313 54.8747 5.05388C54.3051 5.10489 53.7353 5.19157 53.1686 5.31322C51.6392 5.64167 50.1413 6.21992 48.7315 7.02144C47.8512 7.52167 47.009 8.10762 46.2174 8.77057C44.3531 10.3318 42.7885 12.3051 41.6769 14.59C41.1247 15.7251 40.7174 16.8717 40.442 18.0066C39.8646 20.3856 39.8693 22.7215 40.3606 24.8232C40.6873 26.2218 41.2309 27.5259 41.9681 28.684C42.0131 28.7547 42.0591 28.8251 42.1056 28.8947C42.5023 29.4891 42.953 30.0446 43.454 30.5548C44.2183 31.333 45.1042 32.0087 46.1072 32.5548C46.6072 32.8273 47.1205 33.0584 47.6431 33.2512C47.94 33.3605 48.2403 33.4578 48.5433 33.5424C49.0627 33.6876 49.591 33.7964 50.1246 33.8711C54.7723 34.5202 60.1775 32.493 63.9121 28.0473C64.6268 27.1965 65.2494 26.2966 65.7785 25.3622C66.4733 24.1356 67.0064 22.8495 67.3711 21.5383C67.6753 20.4448 67.8617 19.3356 67.9272 18.232C67.9925 17.1346 67.9379 16.0449 67.76 14.9855Z" fill="#B4B7C9"/>
<path d="M67.8357 29.0457L70.7196 14.3449C70.7515 14.2019 70.7835 14.0987 70.8157 14.0352C70.8476 13.9718 70.9198 13.9123 71.032 13.8565C71.1439 13.801 71.3042 13.7731 71.5125 13.7731H80.0682C80.4847 13.7731 80.6607 13.9636 80.597 14.3449L80.0682 17.0848C80.0682 17.4344 79.8358 17.6091 79.3714 17.6091H74.6849L74.3245 19.5152H78.6263C79.0266 19.5152 79.1868 19.6741 79.1069 19.9917L78.5781 22.7317C78.5781 23.1289 78.3459 23.3274 77.8813 23.3274H73.5794L73.0989 25.7815H78.3859C78.7382 25.7815 78.8907 25.9563 78.8426 26.3057L78.29 29.0457C78.2737 29.173 78.2539 29.2683 78.2297 29.3316C78.2058 29.3953 78.1414 29.459 78.0376 29.5222C77.9331 29.5859 77.7769 29.6175 77.5689 29.6175H68.4126C68.1401 29.6175 67.968 29.5739 67.8959 29.4865C67.8237 29.3993 67.8034 29.2523 67.8357 29.0457Z" fill="#B4B7C9"/>
<path d="M87.4459 20.1107H87.6382C88.4229 18.6018 88.9277 17.6726 89.1521 17.3231L90.7144 14.6068C90.9222 14.2576 91.1146 14.0272 91.2911 13.9158C91.4672 13.8049 91.7477 13.7491 92.1321 13.7491H95.3765C95.6167 13.7491 95.7809 13.8129 95.8692 13.9396C95.957 14.067 95.9449 14.2018 95.8332 14.3448L89.0079 24.3756L88.1186 29.0456C88.0706 29.4268 87.814 29.6174 87.3496 29.6174H84.0811C83.6162 29.6174 83.424 29.4268 83.5043 29.0456L84.4176 24.3756H84.4417L81.822 14.4639C81.7741 14.2576 81.8102 14.0867 81.9304 13.9517C82.0506 13.8169 82.2465 13.7491 82.5191 13.7491H85.4511C85.8195 13.7491 86.0678 13.793 86.1961 13.8802C86.3242 13.9676 86.4282 14.1541 86.5085 14.4401L87.0613 17.3231C87.2693 18.5464 87.3978 19.4756 87.4459 20.1107Z" fill="#B4B7C9"/>
<path d="M102.009 13.6062C103.659 13.6062 104.957 13.8446 105.903 14.321C106.624 14.6705 106.848 15.0835 106.575 15.5599L105.975 17.2994C105.83 17.6488 105.666 17.8634 105.482 17.9426C105.298 18.0224 105.021 18.0141 104.653 17.9188C103.611 17.7125 102.642 17.6092 101.745 17.6092C101.28 17.6092 100.944 17.6768 100.735 17.8116C100.527 17.9468 100.423 18.2131 100.423 18.6098C100.423 18.9118 100.607 19.1661 100.976 19.3723L101.529 19.6106C101.592 19.6266 101.737 19.6701 101.961 19.7416C102.185 19.813 102.394 19.8808 102.586 19.9441C102.778 20.0077 102.93 20.0632 103.043 20.1109C103.956 20.4605 104.649 20.921 105.121 21.4929C105.594 22.0647 105.83 22.8509 105.83 23.8517C105.83 26.0757 105.053 27.6639 103.499 28.6169C102.137 29.427 100.479 29.8321 98.5247 29.8321C96.7941 29.8321 95.4003 29.5783 94.3428 29.0696C93.6377 28.7361 93.4217 28.3232 93.6939 27.8307L94.3187 26.1151C94.463 25.7339 94.623 25.5076 94.7994 25.436C94.9756 25.3647 95.2958 25.3847 95.7607 25.4956C97.2346 25.7184 98.4283 25.8293 99.3415 25.8293C100.383 25.8293 100.904 25.4323 100.904 24.6379C100.904 24.3681 100.82 24.1613 100.651 24.0185C100.483 23.8755 100.174 23.7324 99.7261 23.5895C98.6045 23.2403 97.6511 22.7955 96.8663 22.2552C95.9531 21.5725 95.4964 20.5718 95.4964 19.2532C95.4964 18.2208 95.6724 17.3274 96.0251 16.5727C96.3773 15.8185 96.862 15.2347 97.4791 14.8215C98.0956 14.4087 98.7805 14.103 99.5339 13.9042C100.287 13.7056 101.112 13.6062 102.009 13.6062Z" fill="#B4B7C9"/>
<path d="M106.439 29.0457L109.323 14.3449C109.355 14.2019 109.387 14.0987 109.419 14.0352C109.451 13.9718 109.523 13.9123 109.635 13.8565C109.747 13.801 109.907 13.7731 110.116 13.7731H118.671C119.088 13.7731 119.264 13.9636 119.2 14.3449L118.671 17.0848C118.671 17.4344 118.439 17.6091 117.975 17.6091H113.288L112.928 19.5152H117.23C117.63 19.5152 117.79 19.6741 117.71 19.9917L117.181 22.7317C117.181 23.1289 116.949 23.3274 116.484 23.3274H112.183L111.702 25.7815H116.989C117.341 25.7815 117.494 25.9563 117.446 26.3057L116.893 29.0457C116.877 29.173 116.857 29.2683 116.833 29.3316C116.809 29.3953 116.745 29.459 116.641 29.5222C116.536 29.5859 116.38 29.6175 116.172 29.6175H107.016C106.743 29.6175 106.571 29.5739 106.499 29.4865C106.427 29.3993 106.407 29.2523 106.439 29.0457Z" fill="#B4B7C9"/>
<path d="M122.3 13.7731H127.827C129.061 13.7731 130.054 14.1185 130.808 14.8095C131.56 15.5004 131.937 16.4892 131.937 17.7759C131.937 20.0952 130.96 21.8423 129.005 23.0176L130.231 28.9266C130.279 29.1332 130.235 29.3 130.098 29.427C129.962 29.5544 129.774 29.6176 129.534 29.6176H126.53C125.841 29.6176 125.473 29.4112 125.425 28.9981L124.8 23.8754H124.223L123.214 29.0457C123.166 29.4269 122.909 29.6175 122.444 29.6175H119.2C118.927 29.6175 118.751 29.5739 118.671 29.4865C118.591 29.3993 118.567 29.2524 118.599 29.0457L121.483 14.3449C121.531 14.1386 121.611 13.9916 121.723 13.9041C121.835 13.817 122.028 13.7731 122.3 13.7731ZM126.41 17.6091H125.448L124.968 20.1585H125.881C126.217 20.1585 126.51 20.0196 126.758 19.7415C127.007 19.4639 127.13 19.023 127.13 18.4191C127.13 17.8794 126.89 17.6091 126.41 17.6091Z" fill="#B4B7C9"/>
</g>
<defs>
<clipPath id="clip0_492_16055">
<rect width="92" height="29" fill="white" transform="translate(40 5)"/>
</clipPath>
</defs>
</svg>
