<svg width="28" height="28" viewBox="0 0 28 28" fill="none" xmlns="http://www.w3.org/2000/svg">
<g clip-path="url(#clip0_346_590)">
<mask id="mask0_346_590" style="mask-type:luminance" maskUnits="userSpaceOnUse" x="0" y="0" width="28" height="28">
<path d="M0 0H28V28H0V0Z" fill="white"/>
</mask>
<g mask="url(#mask0_346_590)">
<path d="M22.148 14.055C20.339 14.055 18.867 15.527 18.867 17.336C18.867 19.145 20.339 20.617 22.148 20.617H26.796L26.851 20.614L26.905 20.617C27.509 20.617 27.999 20.127 27.999 19.523V10.937C27.9989 10.2451 27.8344 9.5631 27.5193 8.94714C27.2041 8.33119 26.7471 7.79888 26.186 7.39402L22.466 1.29002C22.314 1.04102 22.069 0.863016 21.786 0.795016C21.503 0.727016 21.204 0.776016 20.956 0.929016L18.212 2.63102L16.974 0.537016C16.825 0.285016 16.582 0.104016 16.298 0.0320164C16.014 -0.0399836 15.714 0.00601636 15.464 0.158016L4.928 6.56302H3.281C2.687 6.56302 2.202 6.08702 2.188 5.49702C2.203 4.90602 2.687 4.43102 3.281 4.43102H5.304C5.908 4.43102 6.398 3.94102 6.398 3.33702C6.398 2.73302 5.908 2.24302 5.304 2.24302H3.281C1.734 2.24202 0.433 3.31902 0.0890002 4.76302C0.030204 4.89945 -8.26529e-05 5.04646 1.69407e-07 5.19502V5.46802V5.52302V23.625C0.00132352 24.7849 0.462685 25.897 1.28287 26.7171C2.10305 27.5373 3.21508 27.9987 4.375 28H23.625C24.5433 28.001 25.4386 27.7126 26.1837 27.1759C26.9289 26.6392 27.486 25.8813 27.776 25.01C27.967 24.437 27.658 23.817 27.085 23.626C26.512 23.435 25.893 23.744 25.701 24.317C25.403 25.211 24.569 25.812 23.625 25.812H4.375C3.79522 25.8112 3.2394 25.5806 2.82943 25.1706C2.41946 24.7606 2.18879 24.2048 2.188 23.625V8.56202C2.53 8.68302 2.898 8.75002 3.282 8.75002H23.626C24.206 8.75055 24.762 8.9811 25.1722 9.3911C25.5824 9.8011 25.8132 10.3571 25.814 10.937V14.054H22.15L22.148 14.055ZM25.812 18.43H22.148C21.545 18.43 21.054 17.939 21.054 17.336C21.054 16.733 21.545 16.242 22.148 16.242H25.812V18.43ZM9.14 6.56302L15.654 2.60402L16.819 4.57502C16.8413 4.62978 16.8681 4.68263 16.899 4.73302C16.9228 4.77055 16.9489 4.80661 16.977 4.84102L17.994 6.56202H9.14V6.56302ZM20.535 6.56302L19.325 4.51602L21.172 3.37102L23.118 6.56402H20.534L20.535 6.56302Z" fill="url(#paint0_linear_346_590)"/>
</g>
</g>
<defs>
<linearGradient id="paint0_linear_346_590" x1="1.69407e-07" y1="14.067" x2="28" y2="14.067" gradientUnits="userSpaceOnUse">
<stop stop-color="#F9675F"/>
<stop offset="1" stop-color="#F9B536"/>
</linearGradient>
<clipPath id="clip0_346_590">
<rect width="28" height="28" fill="white"/>
</clipPath>
</defs>
</svg>
