<svg width="92" height="29" viewBox="0 0 92 29" fill="none" xmlns="http://www.w3.org/2000/svg">
<g clip-path="url(#clip0_492_16064)">
<path d="M27.76 9.98546C27.7437 9.88852 27.7271 9.79167 27.7086 9.69538C27.6494 9.38512 27.6494 9.38512 27.6494 9.38512C27.5663 9.04919 27.1916 8.77437 26.8169 8.77429L17.732 8.77349C17.3571 8.77341 16.956 9.0627 16.8405 9.41618L14.9103 15.3242C14.8533 15.4986 14.7783 15.7136 14.8611 15.8297C14.9462 15.9488 15.192 15.9669 15.3819 15.9669H19.0806C19.0806 15.9669 19.2534 15.9655 19.2764 16.0844C19.301 16.2107 19.1685 16.3467 19.1685 16.3467L12.6486 23.1404C12.4206 23.3781 12.0223 23.7927 11.7638 24.0617L10.0914 25.8014C10.0914 25.8014 10.0573 25.8395 10.0173 25.8759C9.99434 25.8971 9.97222 25.9155 9.95115 25.9318C9.71914 26.1105 9.60943 26.0105 9.70568 25.6837L10.5567 22.7924C10.6617 22.4358 10.8334 21.8519 10.9385 21.4953L11.4259 19.8393C11.5076 19.5616 11.6004 19.2466 11.6588 19.0481C11.6753 18.9917 11.714 18.8177 11.6556 18.7298C11.6003 18.6463 11.507 18.6305 11.4022 18.6305C11.2888 18.6305 11.1551 18.6305 11.0145 18.6305H7.49174C7.11685 18.6305 6.99103 18.4423 7.21205 18.2124C7.43308 17.9825 7.82544 17.5742 8.08406 17.3052L10.8229 14.4562C11.0815 14.1872 11.4796 13.7726 11.7079 13.5348C11.9361 13.297 12.3343 12.8823 12.5925 12.613L13.055 12.1311C13.3135 11.8618 13.7362 11.4212 13.9945 11.1521L14.9437 10.1632C15.202 9.89393 15.6078 9.47108 15.8452 9.22351C16.0829 8.97602 16.3395 8.70858 16.4156 8.62921C16.4916 8.54992 16.7652 8.26476 17.0237 7.9955L22.3041 2.4933C22.5626 2.22404 22.512 1.84553 22.1921 1.65206C22.1921 1.65206 21.4452 1.2007 20.7365 0.907279C18.8944 0.144539 16.8947 -0.12687 14.8747 0.053884C14.3051 0.104892 13.7353 0.191574 13.1686 0.313215C11.6392 0.64167 10.1413 1.21992 8.73151 2.02144C7.85125 2.52167 7.00898 3.10762 6.21745 3.77057C4.35308 5.33181 2.78852 7.30508 1.67691 9.59002C1.12467 10.7251 0.717402 11.8717 0.441963 13.0066C-0.135441 15.3856 -0.130713 17.7215 0.360622 19.8232C0.68727 21.2218 1.23085 22.5259 1.96814 23.684C2.01309 23.7547 2.05909 23.8251 2.10557 23.8947C2.50234 24.4891 2.95297 25.0446 3.454 25.5548C4.21829 26.333 5.10423 27.0087 6.10717 27.5548C6.60724 27.8273 7.12054 28.0584 7.64312 28.2512C7.94004 28.3605 8.24025 28.4578 8.54326 28.5424C9.06272 28.6876 9.591 28.7964 10.1246 28.8711C14.7723 29.5202 20.1775 27.493 23.9121 23.0473C24.6268 22.1965 25.2494 21.2966 25.7785 20.3622C26.4733 19.1356 27.0064 17.8495 27.3711 16.5383C27.6753 15.4448 27.8617 14.3356 27.9272 13.232C27.9925 12.1346 27.9379 11.0449 27.76 9.98546Z" fill="#B4B7C9"/>
<path d="M27.8357 24.0457L30.7196 9.34489C30.7515 9.20187 30.7835 9.09875 30.8157 9.03518C30.8476 8.97178 30.9198 8.91227 31.032 8.8565C31.1439 8.80096 31.3042 8.77307 31.5125 8.77307H40.0682C40.4847 8.77307 40.6607 8.9636 40.597 9.34489L40.0682 12.0848C40.0682 12.4344 39.8358 12.6091 39.3714 12.6091H34.6849L34.3245 14.5152H38.6263C39.0266 14.5152 39.1868 14.6741 39.1069 14.9917L38.5781 17.7317C38.5781 18.1289 38.3459 18.3274 37.8813 18.3274H33.5794L33.0989 20.7815H38.3859C38.7382 20.7815 38.8907 20.9563 38.8426 21.3057L38.29 24.0457C38.2737 24.173 38.2539 24.2683 38.2297 24.3316C38.2058 24.3953 38.1414 24.459 38.0376 24.5222C37.9331 24.5859 37.7769 24.6175 37.5689 24.6175H28.4126C28.1401 24.6175 27.968 24.5739 27.8959 24.4865C27.8237 24.3993 27.8034 24.2523 27.8357 24.0457Z" fill="#B4B7C9"/>
<path d="M47.4459 15.1107H47.6382C48.4229 13.6018 48.9277 12.6726 49.1521 12.3231L50.7144 9.60675C50.9222 9.25764 51.1146 9.02723 51.2911 8.91584C51.4672 8.80492 51.7477 8.74915 52.1321 8.74915H55.3765C55.6167 8.74915 55.7809 8.81287 55.8692 8.93959C55.957 9.06703 55.9449 9.20178 55.8332 9.3448L49.0079 19.3756L48.1186 24.0456C48.0706 24.4268 47.814 24.6174 47.3496 24.6174H44.0811C43.6162 24.6174 43.424 24.4268 43.5043 24.0456L44.4176 19.3756H44.4417L41.822 9.4639C41.7741 9.25764 41.8102 9.08674 41.9304 8.95167C42.0506 8.81692 42.2465 8.74915 42.5191 8.74915H45.4511C45.8195 8.74915 46.0678 8.793 46.1961 8.88016C46.3242 8.96764 46.4282 9.15411 46.5085 9.44006L47.0613 12.3231C47.2693 13.5464 47.3978 14.4756 47.4459 15.1107Z" fill="#B4B7C9"/>
<path d="M62.0094 8.6062C63.6594 8.6062 64.957 8.84456 65.9026 9.32095C66.6235 9.67054 66.8477 10.0835 66.5755 10.5599L65.9747 12.2994C65.8304 12.6488 65.666 12.8634 65.482 12.9426C65.2976 13.0224 65.0212 13.0141 64.6529 12.9188C63.6113 12.7125 62.6421 12.6092 61.7449 12.6092C61.28 12.6092 60.9437 12.6768 60.7355 12.8116C60.5271 12.9468 60.4232 13.2131 60.4232 13.6098C60.4232 13.9118 60.6073 14.1661 60.9759 14.3723L61.5287 14.6106C61.5924 14.6266 61.7367 14.6701 61.9611 14.7416C62.1853 14.813 62.3935 14.8808 62.586 14.9441C62.7781 15.0077 62.9303 15.0632 63.0425 15.1109C63.9558 15.4605 64.6488 15.921 65.1214 16.4929C65.5938 17.0647 65.8303 17.8509 65.8303 18.8517C65.8303 21.0757 65.0532 22.6639 63.4992 23.6169C62.1373 24.427 60.4789 24.8321 58.5247 24.8321C56.7941 24.8321 55.4003 24.5783 54.3428 24.0696C53.6377 23.7361 53.4217 23.3232 53.6939 22.8307L54.3187 21.1151C54.463 20.7339 54.623 20.5076 54.7994 20.436C54.9756 20.3647 55.2958 20.3847 55.7607 20.4956C57.2346 20.7184 58.4283 20.8293 59.3415 20.8293C60.3829 20.8293 60.9038 20.4323 60.9038 19.6379C60.9038 19.3681 60.8195 19.1613 60.6513 19.0185C60.483 18.8755 60.1744 18.7324 59.7261 18.5895C58.6045 18.2403 57.6511 17.7955 56.8663 17.2552C55.9531 16.5725 55.4964 15.5718 55.4964 14.2532C55.4964 13.2208 55.6724 12.3274 56.0251 11.5727C56.3773 10.8185 56.862 10.2347 57.4791 9.8215C58.0956 9.40867 58.7805 9.10301 59.5339 8.90423C60.2867 8.7056 61.1119 8.6062 62.0094 8.6062Z" fill="#B4B7C9"/>
<path d="M66.439 24.0457L69.3228 9.34489C69.3546 9.20187 69.3866 9.09875 69.4188 9.03518C69.4507 8.97178 69.5229 8.91227 69.6353 8.8565C69.7471 8.80096 69.9074 8.77307 70.1158 8.77307H78.6713C79.0878 8.77307 79.264 8.9636 79.2002 9.34489L78.6713 12.0848C78.6713 12.4344 78.4389 12.6091 77.9745 12.6091H73.2881L72.9277 14.5152H77.2295C77.6298 14.5152 77.7902 14.6741 77.7102 14.9917L77.1815 17.7317C77.1815 18.1289 76.9491 18.3274 76.4845 18.3274H72.1826L71.7021 20.7815H76.9893C77.3415 20.7815 77.4939 20.9563 77.4458 21.3057L76.8932 24.0457C76.8769 24.173 76.8571 24.2683 76.8329 24.3316C76.809 24.3953 76.7448 24.459 76.6408 24.5222C76.5365 24.5859 76.3801 24.6175 76.1721 24.6175H67.0156C66.7431 24.6175 66.5711 24.5739 66.499 24.4865C66.427 24.3993 66.4066 24.2523 66.439 24.0457Z" fill="#B4B7C9"/>
<path d="M82.3 8.77307H87.8272C89.0614 8.77307 90.0543 9.11853 90.8076 9.80952C91.5601 10.5004 91.9368 11.4892 91.9368 12.7759C91.9368 15.0952 90.9599 16.8423 89.0053 18.0176L90.2306 23.9266C90.2787 24.1332 90.2346 24.3 90.0984 24.427C89.9621 24.5544 89.7738 24.6176 89.5342 24.6176H86.5298C85.8406 24.6176 85.4727 24.4112 85.4246 23.9981L84.7996 18.8754H84.2226L83.2136 24.0457C83.1655 24.4269 82.9091 24.6175 82.4443 24.6175H79.1999C78.9273 24.6175 78.7511 24.5739 78.6711 24.4865C78.5908 24.3993 78.5667 24.2524 78.5992 24.0457L81.4834 9.34489C81.5315 9.13855 81.6108 8.99156 81.723 8.90409C81.8352 8.81701 82.0275 8.77307 82.3 8.77307ZM86.4096 12.6091H85.4479L84.9679 15.1585H85.8806C86.2172 15.1585 86.5097 15.0196 86.7582 14.7415C87.0066 14.4639 87.13 14.023 87.13 13.4191C87.13 12.8794 86.8904 12.6091 86.4096 12.6091Z" fill="#B4B7C9"/>
</g>
<defs>
<clipPath id="clip0_492_16064">
<rect width="92" height="29" fill="white"/>
</clipPath>
</defs>
</svg>
