<svg width="28" height="28" viewBox="0 0 28 28" fill="none" xmlns="http://www.w3.org/2000/svg">
<g clip-path="url(#clip0_346_598)">
<mask id="mask0_346_598" style="mask-type:luminance" maskUnits="userSpaceOnUse" x="0" y="0" width="28" height="28">
<path d="M0 0H28V28H0V0Z" fill="white"/>
</mask>
<g mask="url(#mask0_346_598)">
<path d="M25.813 21.983V2.734C25.8122 2.58917 25.7543 2.4505 25.6519 2.34808C25.5495 2.24567 25.4108 2.18779 25.266 2.187H22.86C22.7151 2.18779 22.5764 2.24567 22.474 2.34808C22.3716 2.4505 22.3137 2.58917 22.313 2.734V25.81H26.906C27.51 25.81 28 26.3 28 26.903C28 27.506 27.51 27.997 26.906 27.997H1.09595C0.491953 27.997 0.00195312 27.507 0.00195312 26.903V19.083C0.00353814 18.3584 0.292093 17.6639 0.804474 17.1515C1.31686 16.6391 2.01134 16.3506 2.73595 16.349H5.14195C5.86657 16.3506 6.56105 16.6391 7.07343 17.1515C7.58581 17.6639 7.87437 18.3584 7.87595 19.083V21.981C7.87595 22.585 7.38595 23.075 6.78195 23.075C6.17795 23.075 5.68795 22.585 5.68795 21.981V19.083C5.68717 18.9382 5.62928 18.7995 5.52687 18.6971C5.42446 18.5947 5.28578 18.5368 5.14095 18.536H2.73595C2.59112 18.5368 2.45245 18.5947 2.35004 18.6971C2.24762 18.7995 2.18974 18.9382 2.18895 19.083V25.809H10.064V11.484C10.0655 10.7594 10.3541 10.0649 10.8665 9.55252C11.3789 9.04014 12.0733 8.75159 12.798 8.75H15.204C15.9286 8.75159 16.6231 9.04014 17.1354 9.55252C17.6478 10.0649 17.9364 10.7594 17.938 11.484V21.983C17.938 22.587 17.448 23.077 16.844 23.077C16.24 23.077 15.75 22.587 15.75 21.983V11.484C15.7492 11.3392 15.6913 11.2005 15.5889 11.0981C15.4865 10.9957 15.3478 10.9378 15.203 10.937H12.797C12.6521 10.9378 12.5134 10.9957 12.411 11.0981C12.3086 11.2005 12.2507 11.3392 12.25 11.484V25.811H20.124V2.734C20.1255 2.00904 20.4144 1.31425 20.9272 0.801816C21.44 0.289378 22.135 0.0010566 22.86 0L25.266 0C25.9906 0.00158502 26.6851 0.29014 27.1974 0.802521C27.7098 1.3149 27.9984 2.00939 28 2.734V21.983C28 22.587 27.51 23.077 26.906 23.077C26.302 23.077 25.813 22.587 25.813 21.983Z" fill="url(#paint0_linear_346_598)"/>
</g>
</g>
<defs>
<linearGradient id="paint0_linear_346_598" x1="-1.03943e-10" y1="14.066" x2="28" y2="14.066" gradientUnits="userSpaceOnUse">
<stop stop-color="#F9675F"/>
<stop offset="1" stop-color="#F9B536"/>
</linearGradient>
<clipPath id="clip0_346_598">
<rect width="28" height="28" fill="white"/>
</clipPath>
</defs>
</svg>
